<svg width="22" height="22" viewBox="0 0 22 22" fill="none" xmlns="http://www.w3.org/2000/svg">
<g id="Icons/access_time_24px">
<path id="icon" fill-rule="evenodd" clip-rule="evenodd" d="M10.9908 1.83337C5.93075 1.83337 1.83325 5.94004 1.83325 11C1.83325 16.06 5.93075 20.1667 10.9908 20.1667C16.0599 20.1667 20.1666 16.06 20.1666 11C20.1666 5.94004 16.0599 1.83337 10.9908 1.83337ZM10.9999 18.3334C6.94825 18.3334 3.66659 15.0517 3.66659 11C3.66659 6.94837 6.94825 3.66671 10.9999 3.66671C15.0516 3.66671 18.3333 6.94837 18.3333 11C18.3333 15.0517 15.0516 18.3334 10.9999 18.3334ZM10.0833 11.9809L15.1158 14.9967L16.0508 13.42L11.9166 10.9359V5.88504H10.0833V11.9809Z" fill="#1C1B1F"/>
</g>
</svg>
