<svg width="22" height="22" viewBox="0 0 22 22" fill="none" xmlns="http://www.w3.org/2000/svg">
<g id="Icons/access_time_24px">
<path id="icon" fill-rule="evenodd" clip-rule="evenodd" d="M10.991 1.83325C5.931 1.83325 1.8335 5.93992 1.8335 10.9999C1.8335 16.0599 5.931 20.1666 10.991 20.1666C16.0602 20.1666 20.1668 16.0599 20.1668 10.9999C20.1668 5.93992 16.0602 1.83325 10.991 1.83325ZM11.0002 18.3333C6.9485 18.3333 3.66683 15.0516 3.66683 10.9999C3.66683 6.94825 6.9485 3.66659 11.0002 3.66659C15.0518 3.66659 18.3335 6.94825 18.3335 10.9999C18.3335 15.0516 15.0518 18.3333 11.0002 18.3333ZM10.0835 11.9808L15.116 14.9966L16.051 13.4199L11.9168 10.9358V5.88492H10.0835V11.9808Z" fill="#228B4A"/>
</g>
</svg>
