<svg width="23" height="22" viewBox="0 0 23 22" fill="none" xmlns="http://www.w3.org/2000/svg">
<g id="icons / home">
<path id="Vector (Stroke)" fill-rule="evenodd" clip-rule="evenodd" d="M10.9371 1.10972C11.2682 0.852261 11.7317 0.852261 12.0627 1.10972L20.3127 7.52639C20.536 7.70005 20.6666 7.96708 20.6666 8.24996V18.3333C20.6666 19.0626 20.3769 19.7621 19.8611 20.2778C19.3454 20.7936 18.6459 21.0833 17.9166 21.0833H5.08325C4.35391 21.0833 3.65443 20.7936 3.13871 20.2778C2.62298 19.7621 2.33325 19.0626 2.33325 18.3333V8.24996C2.33325 7.96708 2.46385 7.70005 2.68714 7.52639L10.9371 1.10972ZM4.16659 8.69829V18.3333C4.16659 18.5764 4.26316 18.8096 4.43507 18.9815C4.60698 19.1534 4.84014 19.25 5.08325 19.25H17.9166C18.1597 19.25 18.3929 19.1534 18.5648 18.9815C18.7367 18.8096 18.8333 18.5764 18.8333 18.3333V8.69829L11.4999 2.99458L4.16659 8.69829Z" fill="#228B4A"/>
<path id="Vector 3 (Stroke)" fill-rule="evenodd" clip-rule="evenodd" d="M13.0415 11.8462C15.4103 10.5723 18.1768 10.6236 19.9886 11.0262L19.5114 13.1738C18.0232 12.8431 15.8397 12.8393 14.0835 13.7838C12.4318 14.6721 10.95 16.5094 10.95 20.35H8.75C8.75 15.8306 10.5682 13.1763 13.0415 11.8462Z" fill="#228B4A"/>
</g>
</svg>
