<svg width="23" height="22" viewBox="0 0 23 22" fill="none" xmlns="http://www.w3.org/2000/svg">
<g id="icons / home">
<path id="Vector (Stroke)" fill-rule="evenodd" clip-rule="evenodd" d="M10.9374 1.10984C11.2684 0.852383 11.7319 0.852383 12.0629 1.10984L20.3129 7.52651C20.5362 7.70018 20.6668 7.96721 20.6668 8.25008V18.3334C20.6668 19.0628 20.3771 19.7622 19.8614 20.278C19.3457 20.7937 18.6462 21.0834 17.9168 21.0834H5.0835C4.35415 21.0834 3.65468 20.7937 3.13895 20.278C2.62323 19.7622 2.3335 19.0628 2.3335 18.3334V8.25008C2.3335 7.96721 2.4641 7.70018 2.68738 7.52651L10.9374 1.10984ZM4.16683 8.69841V18.3334C4.16683 18.5765 4.26341 18.8097 4.43532 18.9816C4.60722 19.1535 4.84038 19.2501 5.0835 19.2501H17.9168C18.1599 19.2501 18.3931 19.1535 18.565 18.9816C18.7369 18.8097 18.8335 18.5765 18.8335 18.3334V8.69841L11.5002 2.9947L4.16683 8.69841Z" fill="#161719"/>
<path id="Vector 3 (Stroke)" fill-rule="evenodd" clip-rule="evenodd" d="M13.0415 11.8461C15.4103 10.5722 18.1768 10.6234 19.9886 11.0261L19.5114 13.1737C18.0232 12.843 15.8397 12.8392 14.0835 13.7837C12.4318 14.6719 10.95 16.5093 10.95 20.3499H8.75C8.75 15.8305 10.5682 13.1762 13.0415 11.8461Z" fill="#161719"/>
</g>
</svg>
