<svg width="22" height="22" viewBox="0 0 22 22" fill="none" xmlns="http://www.w3.org/2000/svg">
<g id="icons / user">
<path id="Vector (Stroke)" fill-rule="evenodd" clip-rule="evenodd" d="M4.09243 14.1757C4.95197 13.3161 6.11776 12.8333 7.33333 12.8333H14.6667C15.8822 12.8333 17.048 13.3161 17.9076 14.1757C18.7671 15.0352 19.25 16.201 19.25 17.4166V19.2499C19.25 19.7562 18.8396 20.1666 18.3333 20.1666C17.8271 20.1666 17.4167 19.7562 17.4167 19.2499V17.4166C17.4167 16.6872 17.1269 15.9878 16.6112 15.472C16.0955 14.9563 15.396 14.6666 14.6667 14.6666H7.33333C6.60399 14.6666 5.90452 14.9563 5.38879 15.472C4.87306 15.9878 4.58333 16.6872 4.58333 17.4166V19.2499C4.58333 19.7562 4.17293 20.1666 3.66667 20.1666C3.16041 20.1666 2.75 19.7562 2.75 19.2499V17.4166C2.75 16.201 3.23289 15.0352 4.09243 14.1757Z" fill="#228B4A"/>
<path id="Vector 4 (Stroke)" fill-rule="evenodd" clip-rule="evenodd" d="M2.75 19.14C2.75 18.5325 3.24249 18.04 3.85 18.04H18.15C18.7575 18.04 19.25 18.5325 19.25 19.14C19.25 19.7476 18.7575 20.24 18.15 20.24H3.85C3.24249 20.24 2.75 19.7476 2.75 19.14Z" fill="#228B4A"/>
<path id="Vector (Stroke)_2" fill-rule="evenodd" clip-rule="evenodd" d="M10.9998 3.66659C9.48105 3.66659 8.24984 4.8978 8.24984 6.41658C8.24984 7.93537 9.48105 9.16658 10.9998 9.16658C12.5186 9.16658 13.7498 7.93537 13.7498 6.41658C13.7498 4.8978 12.5186 3.66659 10.9998 3.66659ZM6.4165 6.41658C6.4165 3.88528 8.46853 1.83325 10.9998 1.83325C13.5311 1.83325 15.5832 3.88528 15.5832 6.41658C15.5832 8.94789 13.5311 10.9999 10.9998 10.9999C8.46853 10.9999 6.4165 8.94789 6.4165 6.41658Z" fill="#228B4A"/>
</g>
</svg>
