<svg width="22" height="22" viewBox="0 0 22 22" fill="none" xmlns="http://www.w3.org/2000/svg">
<g id="icons / user">
<path id="Vector (Stroke)" fill-rule="evenodd" clip-rule="evenodd" d="M4.09243 14.1758C4.95197 13.3163 6.11776 12.8334 7.33333 12.8334H14.6667C15.8822 12.8334 17.048 13.3163 17.9076 14.1758C18.7671 15.0353 19.25 16.2011 19.25 17.4167V19.25C19.25 19.7563 18.8396 20.1667 18.3333 20.1667C17.8271 20.1667 17.4167 19.7563 17.4167 19.25V17.4167C17.4167 16.6874 17.1269 15.9879 16.6112 15.4722C16.0955 14.9564 15.396 14.6667 14.6667 14.6667H7.33333C6.60399 14.6667 5.90452 14.9564 5.38879 15.4722C4.87306 15.9879 4.58333 16.6874 4.58333 17.4167V19.25C4.58333 19.7563 4.17293 20.1667 3.66667 20.1667C3.16041 20.1667 2.75 19.7563 2.75 19.25V17.4167C2.75 16.2011 3.23289 15.0353 4.09243 14.1758Z" fill="#161719"/>
<path id="Vector 4 (Stroke)" fill-rule="evenodd" clip-rule="evenodd" d="M2.75 19.14C2.75 18.5325 3.24249 18.04 3.85 18.04H18.15C18.7575 18.04 19.25 18.5325 19.25 19.14C19.25 19.7476 18.7575 20.24 18.15 20.24H3.85C3.24249 20.24 2.75 19.7476 2.75 19.14Z" fill="#161719"/>
<path id="Vector (Stroke)_2" fill-rule="evenodd" clip-rule="evenodd" d="M11.0001 3.66671C9.4813 3.66671 8.25008 4.89792 8.25008 6.41671C8.25008 7.93549 9.4813 9.16671 11.0001 9.16671C12.5189 9.16671 13.7501 7.93549 13.7501 6.41671C13.7501 4.89792 12.5189 3.66671 11.0001 3.66671ZM6.41675 6.41671C6.41675 3.8854 8.46878 1.83337 11.0001 1.83337C13.5314 1.83337 15.5834 3.8854 15.5834 6.41671C15.5834 8.94801 13.5314 11 11.0001 11C8.46878 11 6.41675 8.94801 6.41675 6.41671Z" fill="#161719"/>
</g>
</svg>
