<svg width="21" height="20" viewBox="0 0 21 20" fill="none" xmlns="http://www.w3.org/2000/svg">
<g id="Group">
<path id="Shape" fill-rule="evenodd" clip-rule="evenodd" d="M20.1 10.2273C20.1 9.51825 20.0364 8.83643 19.9182 8.18188H10.5V12.0501H15.8818C15.65 13.3001 14.9455 14.3592 13.8864 15.0682V17.5773H17.1182C19.0091 15.8364 20.1 13.2728 20.1 10.2273Z" fill="#4285F4"/>
<path id="Shape_2" fill-rule="evenodd" clip-rule="evenodd" d="M10.4998 19.9999C13.1998 19.9999 15.4635 19.1044 17.118 17.5772L13.8862 15.0681C12.9907 15.6681 11.8453 16.0226 10.4998 16.0226C7.89529 16.0226 5.69075 14.2635 4.90439 11.8999H1.56348V14.4908C3.20893 17.759 6.59075 19.9999 10.4998 19.9999Z" fill="#34A853"/>
<path id="Shape_3" fill-rule="evenodd" clip-rule="evenodd" d="M4.90455 11.8999C4.70455 11.2999 4.59091 10.659 4.59091 9.99994C4.59091 9.34085 4.70455 8.69994 4.90455 8.09994V5.50903H1.56364C0.886364 6.85903 0.5 8.38631 0.5 9.99994C0.5 11.6136 0.886364 13.1409 1.56364 14.4909L4.90455 11.8999Z" fill="#FBBC05"/>
<path id="Shape_4" fill-rule="evenodd" clip-rule="evenodd" d="M10.4998 3.97727C11.968 3.97727 13.2862 4.48182 14.3226 5.47273L17.1907 2.60455C15.4589 0.990909 13.1953 0 10.4998 0C6.59075 0 3.20893 2.24091 1.56348 5.50909L4.90439 8.1C5.69075 5.73636 7.89529 3.97727 10.4998 3.97727Z" fill="#EA4335"/>
</g>
</svg>
