<svg xmlns="http://www.w3.org/2000/svg" width="32" height="32" viewBox="0 0 32 32" fill="none">
    <mask id="mask0_1505_7787" style="mask-type:alpha" maskUnits="userSpaceOnUse" x="0" y="0" width="32" height="32">
        <rect width="32" height="32" fill="#C4C4C4"/>
    </mask>
    <g mask="url(#mask0_1505_7787)">
        <path d="M12 26.6672C9.02183 26.6672 6.4997 25.6336 4.43356 23.5664C2.36636 21.5002 1.33276 18.9781 1.33276 16C1.33276 13.0218 2.36636 10.4997 4.43356 8.43356C6.4997 6.36636 9.02183 5.33276 12 5.33276C14.9781 5.33276 17.5002 6.36636 19.5664 8.43356C21.6336 10.4997 22.6672 13.0218 22.6672 16C22.6672 18.9781 21.6336 21.5002 19.5664 23.5664C17.5002 25.6336 14.9781 26.6672 12 26.6672ZM12 23.8672C14.1781 23.8672 16.0336 23.1002 17.5664 21.5664C19.1002 20.0336 19.8672 18.1781 19.8672 16C19.8672 13.8218 19.1002 11.9664 17.5664 10.4336C16.0336 8.8997 14.1781 8.13276 12 8.13276C9.82183 8.13276 7.96636 8.8997 6.43356 10.4336C4.8997 11.9664 4.13276 13.8218 4.13276 16C4.13276 18.1781 4.8997 20.0336 6.43356 21.5664C7.96636 23.1002 9.82183 23.8672 12 23.8672ZM10.5328 20.8H13.4672V14.1328H16.1328V11.8672H7.86716V14.1328H10.5328V20.8ZM25 12.6672L23.2336 8.76636L19.3328 6.99996L23.2336 5.23356L25 1.33276L26.7664 5.23356L30.6672 6.99996L26.7664 8.76636L25 12.6672ZM25 30.6672L23.2336 26.7664L19.3328 25L23.2336 23.2336L25 19.3328L26.7664 23.2336L30.6672 25L26.7664 26.7664L25 30.6672Z" fill="#ECFBFF"/>
    </g>
</svg>
