<svg width="21" height="21" viewBox="0 0 21 21" fill="none" xmlns="http://www.w3.org/2000/svg">
<g id="icons / generating_tokens">
<mask id="mask0_1552_1495" style="mask-type:alpha" maskUnits="userSpaceOnUse" x="0" y="0" width="21" height="21">
<rect id="Bounding box" x="0.5" y="0.5" width="20" height="20" fill="#C4C4C4"/>
</mask>
<g mask="url(#mask0_1552_1495)">
<path id="generating_tokens" d="M8.00001 17.167C6.13867 17.167 4.56234 16.521 3.27101 15.229C1.97901 13.9377 1.33301 12.3613 1.33301 10.5C1.33301 8.63867 1.97901 7.06234 3.27101 5.77101C4.56234 4.47901 6.13867 3.83301 8.00001 3.83301C9.86134 3.83301 11.4377 4.47901 12.729 5.77101C14.021 7.06234 14.667 8.63867 14.667 10.5C14.667 12.3613 14.021 13.9377 12.729 15.229C11.4377 16.521 9.86134 17.167 8.00001 17.167ZM8.00001 15.417C9.36134 15.417 10.521 14.9377 11.479 13.979C12.4377 13.021 12.917 11.8613 12.917 10.5C12.917 9.13867 12.4377 7.97901 11.479 7.02101C10.521 6.06234 9.36134 5.58301 8.00001 5.58301C6.63867 5.58301 5.47901 6.06234 4.52101 7.02101C3.56234 7.97901 3.08301 9.13867 3.08301 10.5C3.08301 11.8613 3.56234 13.021 4.52101 13.979C5.47901 14.9377 6.63867 15.417 8.00001 15.417ZM7.08301 13.5H8.91701V9.33301H10.583V7.91701H5.41701V9.33301H7.08301V13.5ZM16.125 8.41701L15.021 5.97901L12.583 4.87501L15.021 3.77101L16.125 1.33301L17.229 3.77101L19.667 4.87501L17.229 5.97901L16.125 8.41701ZM16.125 19.667L15.021 17.229L12.583 16.125L15.021 15.021L16.125 12.583L17.229 15.021L19.667 16.125L17.229 17.229L16.125 19.667Z" fill="#EEB630"/>
</g>
</g>
</svg>
