<svg width="21" height="20" viewBox="0 0 21 20" fill="none" xmlns="http://www.w3.org/2000/svg">
<g id="icons / clock">
<path id="Vector (Stroke)" fill-rule="evenodd" clip-rule="evenodd" d="M10.4999 2.50004C6.35778 2.50004 2.99992 5.8579 2.99992 10C2.99992 14.1422 6.35778 17.5 10.4999 17.5C14.6421 17.5 17.9999 14.1422 17.9999 10C17.9999 5.8579 14.6421 2.50004 10.4999 2.50004ZM1.33325 10C1.33325 4.93743 5.43731 0.833374 10.4999 0.833374C15.5625 0.833374 19.6666 4.93743 19.6666 10C19.6666 15.0626 15.5625 19.1667 10.4999 19.1667C5.43731 19.1667 1.33325 15.0626 1.33325 10Z" fill="#161719"/>
<path id="Vector (Stroke)_2" fill-rule="evenodd" clip-rule="evenodd" d="M10.5001 4.16663C10.9603 4.16663 11.3334 4.53972 11.3334 4.99996V9.48493L14.2061 10.9213C14.6177 11.1271 14.7846 11.6277 14.5788 12.0393C14.3729 12.451 13.8724 12.6178 13.4607 12.412L10.1274 10.7453C9.84508 10.6042 9.66675 10.3156 9.66675 9.99996V4.99996C9.66675 4.53972 10.0398 4.16663 10.5001 4.16663Z" fill="#161719"/>
</g>
</svg>
