<svg width="21" height="20" viewBox="0 0 21 20" fill="none" xmlns="http://www.w3.org/2000/svg">
<g id="icons / map" clip-path="url(#clip0_1552_2054)">
<path id="Vector (Stroke)" fill-rule="evenodd" clip-rule="evenodd" d="M6.75322 0.943172C6.99513 0.804934 7.29013 0.796746 7.53934 0.921352L13.8071 4.05523L19.2532 0.943172C19.5111 0.795789 19.828 0.796848 20.0849 0.945949C20.3419 1.09505 20.5 1.36965 20.5 1.66671V15C20.5 15.2991 20.3398 15.5752 20.0801 15.7236L14.2468 19.0569C14.0049 19.1951 13.7099 19.2033 13.4607 19.0787L7.19289 15.9448L1.74678 19.0569C1.48886 19.2043 1.17199 19.2032 0.915061 19.0541C0.658132 18.905 0.5 18.6304 0.5 18.3334V5.00004C0.5 4.70099 0.660238 4.42487 0.919884 4.27651L6.75322 0.943172ZM7.19289 2.61151L2.16667 5.48364V16.8974L6.75322 14.2765C6.99513 14.1383 7.29013 14.1301 7.53934 14.2547L13.8071 17.3886L18.8333 14.5164V3.10269L14.2468 5.72358C14.0049 5.86182 13.7099 5.87 13.4607 5.7454L7.19289 2.61151Z" fill="#161719"/>
<path id="Vector (Stroke)_2" fill-rule="evenodd" clip-rule="evenodd" d="M7.16658 0.833374C7.62682 0.833374 7.99992 1.20647 7.99992 1.66671V15C7.99992 15.4603 7.62682 15.8334 7.16658 15.8334C6.70635 15.8334 6.33325 15.4603 6.33325 15V1.66671C6.33325 1.20647 6.70635 0.833374 7.16658 0.833374Z" fill="#161719"/>
<path id="Vector (Stroke)_3" fill-rule="evenodd" clip-rule="evenodd" d="M13.8333 4.16663C14.2936 4.16663 14.6667 4.53972 14.6667 4.99996V18.3333C14.6667 18.7935 14.2936 19.1666 13.8333 19.1666C13.3731 19.1666 13 18.7935 13 18.3333V4.99996C13 4.53972 13.3731 4.16663 13.8333 4.16663Z" fill="#161719"/>
</g>
<defs>
<clipPath id="clip0_1552_2054">
<rect width="20" height="20" fill="white" transform="translate(0.5)"/>
</clipPath>
</defs>
</svg>
