<svg width="21" height="20" viewBox="0 0 21 20" fill="none" xmlns="http://www.w3.org/2000/svg">
<g id="icons / trash-2">
<path id="Vector (Stroke)" fill-rule="evenodd" clip-rule="evenodd" d="M2.16675 4.99996C2.16675 4.53972 2.53984 4.16663 3.00008 4.16663H18.0001C18.4603 4.16663 18.8334 4.53972 18.8334 4.99996C18.8334 5.4602 18.4603 5.83329 18.0001 5.83329H3.00008C2.53984 5.83329 2.16675 5.4602 2.16675 4.99996Z" fill="#161719"/>
<path id="Vector (Stroke)_2" fill-rule="evenodd" clip-rule="evenodd" d="M8.83325 2.50004C8.61224 2.50004 8.40028 2.58784 8.244 2.74412C8.08772 2.9004 7.99992 3.11236 7.99992 3.33337V4.16671H12.9999V3.33337C12.9999 3.11236 12.9121 2.9004 12.7558 2.74412C12.5996 2.58784 12.3876 2.50004 12.1666 2.50004H8.83325ZM14.6666 4.16671V3.33337C14.6666 2.67033 14.4032 2.03445 13.9344 1.56561C13.4655 1.09677 12.8296 0.833374 12.1666 0.833374H8.83325C8.17021 0.833374 7.53433 1.09677 7.06549 1.56561C6.59664 2.03445 6.33325 2.67033 6.33325 3.33337V4.16671H4.66659C4.20635 4.16671 3.83325 4.5398 3.83325 5.00004V16.6667C3.83325 17.3297 4.09664 17.9656 4.56548 18.4345C5.03433 18.9033 5.67021 19.1667 6.33325 19.1667H14.6666C15.3296 19.1667 15.9655 18.9033 16.4344 18.4345C16.9032 17.9656 17.1666 17.3297 17.1666 16.6667V5.00004C17.1666 4.5398 16.7935 4.16671 16.3333 4.16671H14.6666ZM5.49992 5.83337V16.6667C5.49992 16.8877 5.58772 17.0997 5.744 17.256C5.90028 17.4122 6.11224 17.5 6.33325 17.5H14.6666C14.8876 17.5 15.0996 17.4122 15.2558 17.256C15.4121 17.0997 15.4999 16.8877 15.4999 16.6667V5.83337H5.49992Z" fill="#161719"/>
<path id="Vector (Stroke)_3" fill-rule="evenodd" clip-rule="evenodd" d="M8.83333 8.33337C9.29357 8.33337 9.66667 8.70647 9.66667 9.16671V14.1667C9.66667 14.6269 9.29357 15 8.83333 15C8.3731 15 8 14.6269 8 14.1667V9.16671C8 8.70647 8.3731 8.33337 8.83333 8.33337Z" fill="#161719"/>
<path id="Vector (Stroke)_4" fill-rule="evenodd" clip-rule="evenodd" d="M12.1666 8.33337C12.6268 8.33337 12.9999 8.70647 12.9999 9.16671V14.1667C12.9999 14.6269 12.6268 15 12.1666 15C11.7063 15 11.3333 14.6269 11.3333 14.1667V9.16671C11.3333 8.70647 11.7063 8.33337 12.1666 8.33337Z" fill="#161719"/>
</g>
</svg>
